<svg width="73" height="151" viewBox="0 0 73 151" fill="none" xmlns="http://www.w3.org/2000/svg">
<path d="M8.04918 16.1587L7.8416 57.7255L67.9935 58.1364L68.1972 37.5529L68.6001 20.3667L8.04918 16.1587Z" fill="#EEE1CB"/>
<path d="M30.6139 105.295L31.0072 139.068C31.4036 153.856 44.794 153.658 45.1957 140.469L45.6021 104.298C46.4041 94.9054 50.0019 91.1091 58.7943 89.7122C65.7374 88.6092 67.7881 88.7143 67.789 79.7219L67.9913 66.1328L68.192 61.5365L8.03973 63.124L8.03731 76.1136C7.8355 86.7051 8.23503 87.5046 17.827 89.7046C26.0486 91.5904 30.6155 96.3017 30.6139 105.295Z" fill="#E4C9A9"/>
<path d="M32.3336 34.2767C28.0616 22.9583 19.7393 27.3169 17.7283 34.656L15.5007 42.5888C12.6512 51.3036 0.585045 49.0248 0.199824 39.3494C-0.130518 31.06 -0.0162877 26.4227 1.20888 18.1866C2.78305 7.60103 12.9017 0.930728 25.6973 0.898438L59.0626 1.65901C65.6493 2.04874 71.3675 4.81235 72.0783 14.8288L72.9361 33.6463C72.9236 41.0433 63.8712 40.8139 62.1664 32.7365C60.9354 26.9035 55.9118 27.7589 54.3644 32.9117C51.2692 43.2188 36.2871 42.7877 32.3336 34.2767Z" fill="#FF7664"/>
<path d="M67.5974 65.4088L7.98612 65.1326C6.90356 65.1276 6.02151 64.2621 5.99594 63.1799L5.89211 58.7843C5.86552 57.659 6.77254 56.7334 7.89821 56.7371L67.4647 56.9355C68.5408 56.9391 69.4211 57.7935 69.4569 58.8691L69.6056 63.3424C69.6433 64.476 68.7317 65.4141 67.5974 65.4088Z" fill="#D7CBC0"/>
</svg>
