<svg width="74" height="151" viewBox="0 0 74 151" fill="none" xmlns="http://www.w3.org/2000/svg">
<path d="M8.31822 16.1587L8.11064 57.7255L68.2626 58.1364L68.4662 37.5529L68.8691 20.3667L8.31822 16.1587Z" fill="#EEE1CB"/>
<path d="M30.8829 105.295L31.2763 139.068C31.6727 153.856 45.0631 153.658 45.4647 140.469L45.8711 104.298C46.6731 94.9054 50.2709 91.1091 59.0633 89.7122C66.0064 88.6092 68.0572 88.7143 68.058 79.7219L68.2604 66.1328L68.4611 61.5365L8.30877 63.124L8.30635 76.1136C8.10454 86.7051 8.50407 87.5046 18.096 89.7046C26.3177 91.5904 30.8846 96.3017 30.8829 105.295Z" fill="#E4C9A9"/>
<path d="M32.6026 34.2767C28.3306 22.9583 20.0083 27.3169 17.9973 34.656L15.7697 42.5888C12.9203 51.3036 0.854088 49.0248 0.468867 39.3494C0.138525 31.06 0.252755 26.4227 1.47792 18.1866C3.05209 7.60103 13.1708 0.930728 25.9664 0.898438L59.3316 1.65901C65.9184 2.04874 71.6366 4.81235 72.3474 14.8288L73.2052 33.6463C73.1926 41.0433 64.1403 40.8139 62.4355 32.7365C61.2044 26.9035 56.1809 27.7589 54.6335 32.9117C51.5383 43.2188 36.5562 42.7877 32.6026 34.2767Z" fill="#9067F3"/>
<path d="M67.8671 65.4088L8.25578 65.1326C7.17323 65.1276 6.29117 64.2621 6.26561 63.1799L6.16177 58.7843C6.13519 57.659 7.0422 56.7334 8.16788 56.7371L67.7343 56.9355C68.8104 56.9391 69.6908 57.7935 69.7266 58.8691L69.8753 63.3424C69.913 64.476 69.0014 65.4141 67.8671 65.4088Z" fill="#D7CBC0"/>
</svg>
