<svg width="74" height="151" viewBox="0 0 74 151" fill="none" xmlns="http://www.w3.org/2000/svg">
<path d="M8.46845 15.9886L7.94195 57.5526L68.0889 58.425L68.4505 37.8436L68.9853 20.661L8.46845 15.9886Z" fill="#EEE1CB"/>
<path d="M30.3484 105.291L30.4827 139.067C30.7655 153.858 44.1571 153.763 44.6599 140.577L45.3438 104.41C46.2179 95.0237 49.8447 91.2551 58.6476 89.9258C65.599 88.8761 67.6488 88.9969 67.7186 80.0048L68.0253 66.4176L68.2612 61.823L8.09852 62.949L7.99643 75.9382C7.71336 86.5278 8.10675 87.3303 17.6815 89.6039C25.8885 91.5526 30.4191 96.2989 30.3484 105.291Z" fill="#E4C9A9"/>
<path d="M32.6132 34.292C28.4282 22.9411 20.0726 27.2358 18.0054 34.5592L15.717 42.4747C12.8008 51.1674 0.752424 48.796 0.441453 39.118C0.174726 30.8262 0.324533 26.19 1.61285 17.9635C3.26821 7.39035 13.4378 0.797882 26.2333 0.863771L59.5917 1.88032C66.1752 2.32058 71.8721 5.12799 72.506 15.1496L73.2194 33.9731C73.1501 41.3698 64.0998 41.0709 62.457 32.9807C61.2707 27.1384 56.2407 27.9553 54.6539 33.096C51.4797 43.3791 36.5013 42.833 32.6132 34.292Z" fill="#FF9B3B"/>
<path d="M67.6368 65.6925L8.02941 64.9589C6.94692 64.9456 6.07154 64.0734 6.05427 62.991L5.98417 58.5948C5.96622 57.4692 6.88031 56.5506 8.00592 56.563L67.5691 57.2184C68.6451 57.2303 69.5189 58.0914 69.5464 59.1672L69.6608 63.6415C69.6898 64.7754 68.771 65.7064 67.6368 65.6925Z" fill="#D7CBC0"/>
</svg>
