<svg width="74" height="151" viewBox="0 0 74 151" fill="none" xmlns="http://www.w3.org/2000/svg">
<path d="M8.9525 16.1587L8.74492 57.7255L68.8968 58.1364L69.1005 37.5529L69.5034 20.3667L8.9525 16.1587Z" fill="#EEE1CB"/>
<path d="M31.5172 105.295L31.9106 139.068C32.3069 153.856 45.6973 153.658 46.099 140.469L46.5054 104.298C47.3074 94.9054 50.9052 91.1091 59.6976 89.7122C66.6407 88.6092 68.6915 88.7143 68.6923 79.7219L68.8947 66.1328L69.0954 61.5365L8.94305 63.124L8.94063 76.1136C8.73882 86.7051 9.13835 87.5046 18.7303 89.7046C26.9519 91.5904 31.5188 96.3017 31.5172 105.295Z" fill="#E4C9A9"/>
<path d="M33.2369 34.2767C28.9649 22.9583 20.6426 27.3169 18.6316 34.656L16.404 42.5888C13.5545 51.3036 1.48837 49.0248 1.10314 39.3494C0.772803 31.06 0.887033 26.4227 2.1122 18.1866C3.68637 7.60103 13.805 0.930728 26.6007 0.898438L59.9659 1.65901C66.5526 2.04874 72.2709 4.81235 72.9817 14.8288L73.8394 33.6463C73.8269 41.0433 64.7745 40.8139 63.0698 32.7365C61.8387 26.9035 56.8151 27.7589 55.2678 32.9117C52.1725 43.2188 37.1905 42.7877 33.2369 34.2767Z" fill="#FF8CE9"/>
<path d="M68.5014 65.4088L8.89006 65.1326C7.8075 65.1276 6.92545 64.2621 6.89988 63.1799L6.79605 58.7843C6.76946 57.659 7.67648 56.7334 8.80215 56.7371L68.3686 56.9355C69.4447 56.9391 70.3251 57.7935 70.3608 58.8691L70.5095 63.3424C70.5472 64.476 69.6356 65.4141 68.5014 65.4088Z" fill="#D7CBC0"/>
</svg>
