<svg width="74" height="151" viewBox="0 0 74 151" fill="none" xmlns="http://www.w3.org/2000/svg">
<path d="M8.68283 16.1587L8.47526 57.7255L68.6272 58.1364L68.8308 37.5529L69.2337 20.3667L8.68283 16.1587Z" fill="#EEE1CB"/>
<path d="M31.2481 105.295L31.6415 139.068C32.0379 153.856 45.4283 153.658 45.8299 140.469L46.2364 104.298C47.0383 94.9054 50.6362 91.1091 59.4285 89.7122C66.3717 88.6092 68.4224 88.7143 68.4232 79.7219L68.6256 66.1328L68.8263 61.5365L8.674 63.124L8.67159 76.1136C8.46978 86.7051 8.86931 87.5046 18.4612 89.7046C26.6829 91.5904 31.2498 96.3017 31.2481 105.295Z" fill="#E4C9A9"/>
<path d="M32.9679 34.2767C28.6959 22.9583 20.3735 27.3169 18.3625 34.656L16.1349 42.5888C13.2855 51.3036 1.21932 49.0248 0.834102 39.3494C0.50376 31.06 0.61799 26.4227 1.84315 18.1866C3.41733 7.60103 13.536 0.930728 26.3316 0.898438L59.6969 1.65901C66.2836 2.04874 72.0018 4.81235 72.7126 14.8288L73.5704 33.6463C73.5579 41.0433 64.5055 40.8139 62.8007 32.7365C61.5696 26.9035 56.5461 27.7589 54.9987 32.9117C51.9035 43.2188 36.9214 42.7877 32.9679 34.2767Z" fill="#ACE90A"/>
<path d="M68.2317 65.4088L8.62039 65.1326C7.53784 65.1276 6.65578 64.2621 6.63022 63.1799L6.52638 58.7843C6.4998 57.659 7.40681 56.7334 8.53249 56.7371L68.0989 56.9355C69.175 56.9391 70.0554 57.7935 70.0912 58.8691L70.2399 63.3424C70.2776 64.476 69.366 65.4141 68.2317 65.4088Z" fill="#D7CBC0"/>
</svg>
