<svg width="74" height="151" viewBox="0 0 74 151" fill="none" xmlns="http://www.w3.org/2000/svg">
<path d="M8.78063 16.0806L8.57305 57.6474L68.725 58.0583L68.9286 37.4747L69.3315 20.2885L8.78063 16.0806Z" fill="#EEE1CB"/>
<path d="M31.3453 105.216L31.7387 138.99C32.1351 153.778 45.5255 153.58 45.9271 140.391L46.3335 104.22C47.1355 94.8272 50.7333 91.0309 59.5257 89.6341C66.4689 88.5311 68.5196 88.6362 68.5204 79.6438L68.7228 66.0546L68.9235 61.4583L8.77117 63.0459L8.76876 76.0355C8.56694 86.627 8.96647 87.4265 18.5584 89.6265C26.7801 91.5122 31.347 96.2236 31.3453 105.216Z" fill="#E4C9A9"/>
<path d="M33.065 34.1986C28.793 22.8802 20.4707 27.2388 18.4597 34.5779L16.2321 42.5107C13.3827 51.2255 1.31649 48.9467 0.93127 39.2713C0.600928 30.9818 0.715158 26.3446 1.94032 18.1085C3.5145 7.5229 13.6332 0.852603 26.4288 0.820312L59.794 1.58088C66.3808 1.97061 72.099 4.73422 72.8098 14.7506L73.6676 33.5681C73.655 40.9651 64.6027 40.7357 62.8979 32.6583C61.6668 26.8253 56.6433 27.6808 55.0959 32.8336C52.0007 43.1407 37.0186 42.7095 33.065 34.1986Z" fill="#FECE00"/>
<path d="M68.3295 65.3307L8.71818 65.0545C7.63563 65.0495 6.75357 64.184 6.72801 63.1018L6.62417 58.7062C6.59759 57.5809 7.5046 56.6552 8.63028 56.659L68.1967 56.8574C69.2728 56.861 70.1532 57.7154 70.1889 58.7909L70.3377 63.2643C70.3753 64.3979 69.4638 65.3359 68.3295 65.3307Z" fill="#D7CBC0"/>
</svg>
