<svg width="862" height="1632" viewBox="0 0 862 1632" fill="none" xmlns="http://www.w3.org/2000/svg">
<path d="M431 457L431 1201" stroke="#FECE00" stroke-width="861" stroke-linecap="round"/>
<circle cx="139.292" cy="139.292" r="139.292" transform="matrix(-1 0 0 1 416.584 0)" fill="white"/>
<circle cx="321.618" cy="180.618" r="66.6179" fill="#322F38"/>
<circle cx="30.5" cy="30.5" r="21" transform="matrix(-1 0 0 1 352.236 150.293)" fill="#322F38" stroke="#322F38" stroke-width="19"/>
<path d="M560.223 420C540.455 400.15 494.495 374.125 440.954 374.125C387.413 374.125 341.454 400.15 321.686 420" stroke="#322F38" stroke-width="72.67" stroke-linecap="round"/>
<circle cx="139.292" cy="139.292" r="139.292" transform="matrix(-1 0 0 1 731.506 0)" fill="white"/>
<circle cx="66.6179" cy="66.6179" r="66.6179" transform="matrix(-1 0 0 1 615.236 114)" fill="#322F38"/>
<circle cx="548.5" cy="180.793" r="21" fill="#322F38" stroke="#322F38" stroke-width="19"/>
</svg>
