<svg width="34" height="79" viewBox="0 0 34 79" fill="none" xmlns="http://www.w3.org/2000/svg">
<path d="M31.0953 5.49181C30.4317 3.61276 29.8641 0.621647 26.4628 0.621724L6.83628 0.621094C3.43498 0.621016 2.86731 3.61212 2.20375 5.49117C0.628367 13.4615 0.0380856 16.5664 0.0380859 25.1926L0.0386527 54.2698C0.0386514 62.8959 0.628931 66.0008 2.20431 73.9712C2.86788 75.8502 3.43555 78.8413 6.83685 78.8412L26.4633 78.8406C29.8646 78.8407 30.4323 75.8496 31.0959 73.9705C32.6713 66.0002 33.2615 62.8953 33.2615 54.2692L33.261 25.1932C33.261 16.5671 32.6707 13.4622 31.0953 5.49181Z" fill="#FF7664"/>
</svg>
