<svg width="525" height="904" viewBox="0 0 525 904" fill="none" xmlns="http://www.w3.org/2000/svg">
<path d="M239.605 261.022C252.007 293.963 243.807 316.1 246.5 351.392L381.666 354.529L374.235 274.704C371.899 252.865 378.996 220.667 385.346 191.857C386.094 188.467 409.329 172.266 433.895 158.134C458.462 144.001 433.053 129.517 406.36 128.963C379.668 128.41 362.505 149.506 349.613 143.111C336.722 136.716 302.162 38.4722 302.162 38.4722C293.963 18.8958 268.229 22.1081 273.228 48.0874C273.228 48.0874 302.253 130.894 298.844 130.142C295.434 129.389 258.258 43.0107 258.258 43.0107C247.982 24.7526 228.319 32.8574 234.066 55.4481C234.066 55.4481 267.248 135.616 262.717 139.948C258.187 144.281 230.704 70.7 230.704 70.7C218.512 44.9115 193.198 62.4327 203.102 82.3856C203.102 82.3856 237.777 155.772 230.584 155.965C223.392 156.158 214.22 129.261 214.22 129.261C199.155 92.1777 176.504 113.84 186.244 142.643L239.605 261.022Z" fill="#9067F3"/>
<path d="M313.74 347.788L315.05 895.174" stroke="#9067F3" stroke-width="135.385"/>
</svg>
