<svg width="630" height="926" viewBox="0 0 630 926" fill="none" xmlns="http://www.w3.org/2000/svg">
<path d="M214.39 312.86C226.267 345.994 217.716 367.997 219.847 403.327L354.947 408.612L348.785 328.678C346.796 306.805 354.404 274.724 361.211 246.019C362.012 242.641 385.501 226.811 410.289 213.071C435.077 199.33 409.902 184.444 383.222 183.467C356.542 182.489 339.045 203.31 326.257 196.711C313.469 190.112 280.473 91.3316 280.473 91.3316C272.587 71.6275 246.805 74.4305 251.391 100.486C251.391 100.486 279.097 183.743 275.7 182.937C272.303 182.13 236.504 95.1721 236.504 95.1721C226.519 76.753 206.73 84.5444 212.117 107.224C212.117 107.224 244.021 187.908 239.422 192.168C234.824 196.428 208.513 122.42 208.513 122.42C196.732 96.4412 171.143 113.558 180.729 133.666C180.729 133.666 214.234 207.594 207.039 207.672C199.844 207.751 191.101 180.712 191.101 180.712C176.627 143.394 153.635 164.693 162.916 193.648L214.39 312.86Z" fill="#FF8CE9"/>
<path d="M287.139 400.793L285.432 908.838" stroke="#FF8CE9" stroke-width="135.385"/>
</svg>
