<svg width="578" height="829" viewBox="0 0 578 829" fill="none" xmlns="http://www.w3.org/2000/svg">
<path d="M289 326L289 540" stroke="#9067F3" stroke-width="578" stroke-linecap="round"/>
<circle cx="77.7724" cy="77.7724" r="77.7724" transform="matrix(-1 0 0 1 258.545 0)" fill="white"/>
<ellipse cx="205.521" cy="53.3869" rx="37.1955" ry="37.1955" fill="#322F38"/>
<circle cx="17.0294" cy="17.0294" r="17.0294" transform="matrix(-1 0 0 1 222.616 36.4551)" fill="#322F38"/>
<circle cx="77.7724" cy="77.7724" r="77.7724" transform="matrix(-1 0 0 1 474.379 0)" fill="white"/>
<ellipse cx="37.1955" cy="37.1955" rx="37.1955" ry="37.1955" transform="matrix(-1 0 0 1 449.328 16)" fill="#322F38"/>
<circle cx="412.066" cy="53.2931" r="17.0294" fill="#322F38"/>
<path d="M358.966 298.364C336.004 306.761 290.627 310.178 249.826 289.896C209.025 269.613 184.355 231.375 177.188 208" stroke="#322F38" stroke-width="37" stroke-linecap="round"/>
</svg>
