<svg width="22" height="135" viewBox="0 0 22 135" fill="none" xmlns="http://www.w3.org/2000/svg">
<path d="M2.97012 133.241L2.96393 127.401C2.96334 126.849 3.41059 126.401 3.96287 126.4L19.0244 126.389C19.5766 126.389 20.0248 126.836 20.0254 127.388L20.0316 133.228C20.0322 133.78 19.585 134.228 19.0327 134.229L3.97119 134.24C3.4189 134.24 2.97071 133.793 2.97012 133.241Z" fill="#F077A2"/>
<path d="M11.1911 0.972656L9.66683 4.77947L12.4672 4.79966L11.1911 0.972656Z" fill="black"/>
<path d="M20.4615 19.8926L2.37078 19.9882L9.6601 4.78616L12.4673 4.7841L20.4615 19.8926Z" fill="#E7B280"/>
<path d="M2.47423 118.902L2.36928 19.9868L20.46 19.8912L20.565 118.888L2.47423 118.902Z" fill="#F3D13A"/>
<path d="M20.9854 115.174L1.9716 115.188C1.4193 115.188 0.97205 115.636 0.972657 116.188L0.983589 126.135C0.984196 126.687 1.43238 127.135 1.98465 127.134L20.9981 127.12C21.5504 127.12 21.9976 126.672 21.997 126.119L21.9865 116.173C21.9859 115.621 21.5377 115.173 20.9854 115.174Z" fill="#BEBEBE"/>
</svg>
