<svg width="14" height="97" viewBox="0 0 14 97" fill="none" xmlns="http://www.w3.org/2000/svg">
<path d="M2.54686 95.8638L2.55055 92.4647C2.55115 91.9124 2.99935 91.465 3.55164 91.4654L10.7378 91.4708C11.2901 91.4713 11.7373 91.9193 11.7367 92.4716L11.733 95.8707C11.7324 96.423 11.2842 96.8703 10.7319 96.8699L3.54577 96.8645C2.99349 96.8641 2.54626 96.4161 2.54686 95.8638Z" fill="#F077A2"/>
<path d="M6.50236 0.871094L5.91504 4.36971L7.44948 4.37086L6.50236 0.871094Z" fill="black"/>
<path d="M12.1139 18.4197L2.3735 18.4889L5.9151 4.36654L7.42654 4.36768L12.1139 18.4197Z" fill="#E7B280"/>
<path d="M2.30101 84.4937L2.3745 18.3552L12.1149 18.286L12.0413 84.501L2.30101 84.4937Z" fill="#F3D13A"/>
<path d="M12.5247 83.6002L1.7824 83.5921C1.2301 83.5917 0.781898 84.0391 0.781316 84.5914L0.774415 91.14C0.773833 91.6922 1.22106 92.1403 1.77333 92.1407L12.5154 92.1487C13.0677 92.1492 13.5159 91.7018 13.5165 91.1495L13.5236 84.601C13.5242 84.0487 13.077 83.6006 12.5247 83.6002Z" fill="#BEBEBE"/>
</svg>
