<svg width="862" height="1632" viewBox="0 0 862 1632" fill="none" xmlns="http://www.w3.org/2000/svg">
<path d="M431 457L431 1201" stroke="#FF8CE9" stroke-width="861" stroke-linecap="round"/>
<circle cx="139.292" cy="139.292" r="139.292" transform="matrix(-1 0 0 1 416.584 0)" fill="white"/>
<circle cx="321.618" cy="95.6179" r="66.6179" fill="#322F38"/>
<circle cx="30.5" cy="30.5" r="21" transform="matrix(-1 0 0 1 352.236 65.293)" fill="#322F38" stroke="#322F38" stroke-width="19"/>
<path d="M560.223 373C540.455 392.85 494.495 418.875 440.954 418.875C387.413 418.875 341.454 392.85 321.686 373" stroke="#322F38" stroke-width="72.67" stroke-linecap="round"/>
<circle cx="139.292" cy="139.292" r="139.292" transform="matrix(-1 0 0 1 731.506 0)" fill="white"/>
<circle cx="66.6179" cy="66.6179" r="66.6179" transform="matrix(-1 0 0 1 615.236 29)" fill="#322F38"/>
<circle cx="548.5" cy="95.793" r="21" fill="#322F38" stroke="#322F38" stroke-width="19"/>
</svg>
