<svg width="802" height="784" viewBox="0 0 802 784" fill="none" xmlns="http://www.w3.org/2000/svg">
<path d="M363.628 23.5086C379.168 -7.05753 422.832 -7.05754 438.372 23.5086L500.271 145.258C508.83 162.094 527.59 171.128 546.089 167.323L679.87 139.808C713.456 132.9 740.681 167.038 726.472 198.245L669.878 322.549C662.052 339.738 666.685 360.038 681.194 372.129L786.117 459.567C812.459 481.519 802.743 524.089 769.485 532.438L637.014 565.692C618.696 570.291 605.714 586.57 605.307 605.452L602.364 742.001C601.625 776.283 562.284 795.229 535.021 774.432L426.427 691.596C411.411 680.141 390.589 680.141 375.573 691.596L266.979 774.432C239.716 795.229 200.375 776.283 199.636 742.001L196.693 605.452C196.286 586.57 183.304 570.291 164.986 565.692L32.5149 532.438C-0.742897 524.089 -10.4592 481.519 15.8826 459.567L120.806 372.129C135.315 360.038 139.948 339.738 132.122 322.549L75.5276 198.245C61.3191 167.038 88.5435 132.9 122.13 139.808L255.911 167.323C274.41 171.128 293.17 162.094 301.729 145.258L363.628 23.5086Z" fill="#EBDFD1"/>
</svg>
