<svg width="870" height="190" viewBox="0 0 870 190" fill="none" xmlns="http://www.w3.org/2000/svg">
<path d="M100.5 95L774.5 95.0001" stroke="#9067F3" stroke-width="189.423" stroke-linecap="round"/>
<rect x="0.110001" y="0.110001" width="78.3208" height="51.4805" transform="matrix(4.37114e-08 1 1 -4.37114e-08 61.3867 57.5547)" stroke="#9067F3" stroke-width="0.220002"/>
<path d="M82.0674 123.385C86.4344 119.036 92.16 108.925 92.16 97.1456C92.16 85.3664 86.4344 75.2553 82.0674 70.9062" stroke="#322F38" stroke-width="15.9876" stroke-linecap="round"/>
<ellipse cx="30.645" cy="130.426" rx="30.6441" ry="30.645" transform="rotate(-90 30.645 130.426)" fill="white"/>
<circle cx="29.8436" cy="130.156" r="14.6561" transform="rotate(-90 29.8436 130.156)" fill="#322F38"/>
<circle cx="6.71006" cy="6.71006" r="4.62004" transform="matrix(4.37114e-08 1 1 -4.37114e-08 23.1719 123.42)" fill="#322F38" stroke="#322F38" stroke-width="4.18004"/>
<ellipse cx="30.8559" cy="60.645" rx="30.6441" ry="30.645" transform="rotate(-90 30.8559 60.645)" fill="white"/>
<mask id="mask0_172_565" style="mask-type:alpha" maskUnits="userSpaceOnUse" x="0" y="30" width="62" height="62">
<ellipse cx="30.8559" cy="60.645" rx="30.6441" ry="30.645" transform="rotate(-90 30.8559 60.645)" fill="white"/>
</mask>
<g mask="url(#mask0_172_565)">
<circle cx="14.6561" cy="14.6561" r="14.6561" transform="matrix(4.37114e-08 1 1 -4.37114e-08 15.4004 46)" fill="#322F38"/>
<circle cx="30.0948" cy="60.6825" r="4.62004" transform="rotate(-90 30.0948 60.6825)" fill="#322F38" stroke="#322F38" stroke-width="4.18004"/>
</g>
</svg>
