<svg width="190" height="267" viewBox="0 0 190 267" fill="none" xmlns="http://www.w3.org/2000/svg">
<path d="M95 101L95 172" stroke="#ACE90A" stroke-width="189.423" stroke-linecap="round"/>
<ellipse cx="30.6441" cy="30.645" rx="30.6441" ry="30.645" transform="matrix(-1 0 0 1 92.2881 0)" fill="white"/>
<circle cx="61.6561" cy="19.6561" r="14.6561" fill="#322F38"/>
<circle cx="6.71006" cy="6.71006" r="4.62004" transform="matrix(-1 0 0 1 68.3926 12.9844)" fill="#322F38" stroke="#322F38" stroke-width="4.18004"/>
<path d="M123.887 82.0713C119.538 86.4383 109.427 92.1639 97.6475 92.1639C85.8684 92.1639 75.7572 86.4383 71.4082 82.0713" stroke="#322F38" stroke-width="15.9876" stroke-linecap="round"/>
<ellipse cx="30.6441" cy="30.645" rx="30.6441" ry="30.645" transform="matrix(-1 0 0 1 161.571 0)" fill="white"/>
<circle cx="14.6561" cy="14.6561" r="14.6561" transform="matrix(-1 0 0 1 145.312 5)" fill="#322F38"/>
<circle cx="130.63" cy="19.6944" r="4.62004" fill="#322F38" stroke="#322F38" stroke-width="4.18004"/>
</svg>
